# AST/ASF file generated using VICON BodyLanguage
# -----------------------------------------------
:version 1.10
:name VICON
:units
  mass 1.0
  length 0.45
  angle deg
:documentation
   .ast/.asf automatically generated from VICON data using
   VICON BodyBuilder and BodyLanguage model FoxedUp or BRILLIANT.MOD
:root
   order TX TY TZ RX RY RZ
   axis XYZ
   position 0 0 0  
   orientation 0 0 0 
:bonedata
  begin
     id 1 
     name lhipjoint
     direction 0.440178 -0.822639 0.359871 
     length 2.53113 
     axis 0 0 0  XYZ
  end
  begin
     id 2 
     name lfemur
     direction 0.34202 -0.939693 0  
     length 7.88132  
     axis 0 0 20  XYZ
    dof rx ry rz
    limits (-160.0 20.0)
           (-70.0 70.0)
           (-60.0 70.0)
  end
  begin
     id 3 
     name ltibia
     direction 0.34202 -0.939693 0   
     length 8.43783   
     axis 0 0 20   XYZ
    dof rx
    limits (-10.0 170.0)
  end
  begin
     id 4 
     name lfoot
     direction 0.0886351 -0.243523 0.965837   
     length 2.63414   
     axis -90 7.62852e-016 20   XYZ
    dof rx rz
    limits (-45.0 90.0)
           (-70.0 20.0)
  end
  begin
     id 5 
     name ltoes
     direction 1.53703e-011 -4.21717e-011 1   
     length 1.31427   
     axis -90 7.62852e-016 20   XYZ
    dof rx
    limits (-90.0 20.0)
  end
  begin
     id 6 
     name rhipjoint
     direction -0.399779 -0.839773 0.367367   
     length 2.47948  
     axis 0 0 0  XYZ 
  end
  begin
     id 7 
     name rfemur
     direction -0.34202 -0.939693 0   
     length 7.74806   
     axis 0 0 -20   XYZ
    dof rx ry rz
    limits (-160.0 20.0)
           (-70.0 70.0)
           (-70.0 60.0)
  end
  begin
     id 8 
     name rtibia
     direction -0.34202 -0.939693 0   
     length 8.74432   
     axis 0 0 -20   XYZ
    dof rx
    limits (-10.0 170.0)
 end
 begin
     id 9 
     name rfoot
     direction -0.108514 -0.298139 0.948334   
     length 2.66102  
     axis -90 -7.62852e-016 -20   XYZ
    dof rx rz
    limits (-45.0 90.0)
           (-20.0 70.0)
  end
  begin
     id 10 
     name rtoes
     direction -1.53392e-011 -4.22077e-011 1   
     length 1.31983   
     axis -90 -7.62852e-016 -20   XYZ
    dof rx
    limits (-90.0 20.0)
  end
  begin
     id 11 
     name lowerback
     direction 0.0113257 0.999866 0.0118602   
     length 2.58694   
     axis 0 0 0   XYZ
    dof rx ry rz
    limits (-20.0 45.0)
           (-30.0 30.0)
           (-30.0 30.0)
  end
  begin
     id 12 
     name upperback
     direction -0.0164747 0.995193 -0.0965375   
     length 2.52368   
     axis 0 0 0   XYZ
    dof rx ry rz
    limits (-20.0 45.0)
           (-30.0 30.0)
           (-30.0 30.0)
  end
  begin
     id 13 
     name thorax
     direction -0.0194301 0.99433 -0.104552   
     length 2.56099   
     axis 0 0 0   XYZ
    dof rx ry rz
    limits (-20.0 45.0)
           (-30.0 30.0)
           (-30.0 30.0)
  end
  begin
     id 14 
     name lowerneck
     direction 0.0148543 0.995587 -0.092657   
     length 1.71582   
     axis 0 0 0   XYZ
    dof rx ry rz
    limits (-20.0 45.0)
           (-30.0 30.0)
           (-30.0 30.0)
  end
  begin
     id 15 
     name upperneck
     direction -0.0135467 0.993656 -0.111639   
     length 1.68937   
     axis 0 0 0   XYZ
    dof rx ry rz
    limits (-20.0 45.0)
           (-30.0 30.0)
           (-30.0 30.0)
  end
  begin
     id 16
     name head
     direction -0.00615349 0.999547 -0.029448  
     length 1.7462  
     axis 0 0 0   XYZ
    dof rx ry rz
    limits (-20.0 45.0)
           (-30.0 30.0)
           (-30.0 30.0)
  end
  begin
     id 17 
     name lclavicle
     direction 0.988267 0.149885 0.0293713  
     length 4.47222  
     axis 0 0 0   XYZ
    dof ry rz
    limits (-20.0 10.0)
           (0.0 20.0)
  end
  begin
     id 18 
     name lhumerus
     direction 1 -4.48986e-011 -1.14833e-027   
     length 5.37148   
     axis 180 -30 -90   XYZ
    dof rx ry rz
    limits (-60.0 90.0)
           (-90.0 90.0)
           (-90.0 90.0)
  end
  begin
     id 19
     name lradius
     direction 0.999998 0.00170963 -0.000987055   
     length 3.94212   
     axis 180 -30 -90   XYZ
    dof rx
    limits (-10.0 170.0)
  end
  begin
     id 20
     name lwrist
     direction 0.999998 7.53149e-005 -0.00194706   
     length 1.97106   
     axis 4.65056e-015 90 90   XYZ
    dof ry
    limits (-180.0 0.0)
 end
  begin
     id 21 
     name lhand
     direction 1 -4.48973e-011 -1.31746e-026   
     length 1.17917   
     axis 8.4065e-015 90 90   XYZ
    dof rx rz
    limits (-90.0 90.0)
           (-45.0 45.0)
  end
  begin
     id 22 
     name lfingers
     direction 1 -4.49107e-011 -2.63492e-026   
     length 0.950679   
     axis 1.6813e-014 90 90   XYZ
    dof rx
    limits (0.0 90.0)
  end
  begin
     id 23
     name lthumb
     direction 0.707107 -6.35048e-011 0.707107   
     length 1.36499   
     axis -90 45 2.85299e-015   XYZ
    dof rx rz
    limits (-45.0 45.0)
           (-45.0 45.0)
  end
  begin
     id 24 
     name rclavicle
     direction -0.996699 0.0642895 -0.0495725   
     length 4.62611  
     axis 0 0 0   XYZ 
    dof ry rz
    limits (-10.0 20.0)
           (-20.0 0.0)
  end
  begin
     id 25 
     name rhumerus
     direction -1 -4.48919e-011 -2.41059e-027  
     length 5.4981   
     axis 180 30 90   XYZ
    dof rx ry rz
    limits (-90.0 60.0)
           (-90.0 90.0)
           (-90.0 90.0)
  end
  begin
     id 26 
     name rradius
     direction -0.999999 0.00118101 -0.000681858   
     length 3.48381   
     axis 180 30 90   XYZ
    dof rx
    limits (-10.0 170.0)
  end
  begin
     id 27 
     name rwrist
     direction -0.999999 0.000321823 -0.00132288   
     length 1.7419   
     axis 4.65056e-015 -90 -90   XYZ
    dof ry
    limits (-180.0 0.0)
  end
  begin
     id 28
     name rhand
     direction -1 -4.49022e-011 -1.31746e-026   
     length 1.34932   
     axis 8.4065e-015 -90 -90   XYZ
    dof rx rz
    limits (-90.0 90.0)
           (-45.0 45.0)
  end
  begin
     id 29
     name rfingers
     direction -1 -4.49178e-011 -2.63492e-026   
     length 1.08785   
     axis 1.6813e-014 -90 -90   XYZ
    dof rx
    limits (0.0 90.0)
  end
  begin
     id 30
     name rthumb
     direction -0.707107 -6.34713e-011 0.707107   
     length 1.56195   
     axis -90 -45 -2.85299e-015   XYZ
    dof rx rz
    limits (-45.0 45.0)
           (-45.0 45.0)
  end
:hierarchy
  begin
    root lhipjoint rhipjoint lowerback
    lhipjoint lfemur
    lfemur ltibia
    ltibia lfoot
    lfoot ltoes
    rhipjoint rfemur
    rfemur rtibia
    rtibia rfoot
    rfoot rtoes
    lowerback upperback
    upperback thorax
    thorax lowerneck lclavicle rclavicle
    lowerneck upperneck
    upperneck head
    lclavicle lhumerus
    lhumerus lradius
    lradius lwrist
    lwrist lhand lthumb
    lhand lfingers
    rclavicle rhumerus
    rhumerus rradius
    rradius rwrist
    rwrist rhand rthumb
    rhand rfingers
  end

#!OML:ASF X:\für Bonn\!DataBase\2005_08_10_Bjorn_Final\c3d\bjorn.ASF
:FULLY-SPECIFIED
:DEGREES
1
root -0.357652 19.1153 3.07517 -179.893 -14.709 180.058
lowerback -4.19641 1.62729 -4.01112
upperback 6.49306 2.38829 -3.50745
thorax 9.21384 0.847779 -1.22117
lowerneck -3.97772 -8.1373 -2.2361
upperneck 19.6204 -14.6689 10.1214
head 7.62468 -6.96106 2.37488
rclavicle -2.5842e-014 -1.01778e-013
rhumerus -77.0363 -52.3159 -23.6876
rradius 11.1914
rwrist 58.5003
rhand 0.207 9.69291
rfingers 7.12502
rthumb 25.7886 -18.5792
lclavicle -2.5842e-014 -1.01778e-013
lhumerus -17.7544 -2.95053 83.2443
lradius 26.4676
lwrist -39.6354
lhand -24.137 -13.7388
lfingers 7.12502
lthumb 2.345 16.228
rfemur -10.4251 -5.20503 14.5992
rtibia 33.7742
rfoot -20.3971 -2.12036
rtoes -34.0972
lfemur -8.20431 7.72007 -18.1825
ltibia 30.1888
lfoot -12.9762 -19.4462
ltoes 8.99724
2
root -0.376281 19.1137 3.10207 -180.307 -14.8727 180.01
lowerback -3.53627 1.60745 -4.04318
upperback 6.69331 2.2967 -3.65752
thorax 9.04817 0.790278 -1.39006
lowerneck -4.32269 -8.30368 -2.24786
upperneck 19.5973 -14.8608 10.0987
head 7.692 -7.02965 2.33249
rclavicle -9.14409e-015 3.97569e-014
rhumerus -76.7942 -52.2675 -24.2327
rradius 11.1227
rwrist 59.0588
rhand 0.734628 9.81401
rfingers 7.12502
rthumb 26.2938 -18.3837
lclavicle -9.14409e-015 3.97569e-014
lhumerus -17.4603 -5.41862 83.1997
lradius 28.0209
lwrist -38.2988
lhand -24.4434 -14.1218
lfingers 7.12502
lthumb 2.0491 15.8481
rfemur -10.475 -4.21194 14.4636
rtibia 34.6694
rfoot -20.1645 -3.00405
rtoes -35.8779
lfemur -7.72608 7.15218 -18.3298
ltibia 30.0328
lfoot -12.946 -19.0639
ltoes 9.08298
3
root -0.394843 19.1128 3.12929 -180.786 -15.0082 179.998
lowerback -2.83294 1.59506 -4.0533
upperback 6.91053 2.20569 -3.76576
thorax 8.8742 0.732103 -1.52597
lowerneck -4.63644 -8.46307 -2.34674
upperneck 19.5738 -15.0308 10.0768
head 7.75808 -7.09386 2.3073
rclavicle 1.59028e-014 -9.54166e-015
rhumerus -75.3612 -51.8866 -26.1998
rradius 11.1232
rwrist 58.8831
rhand 1.09745 10.0424
rfingers 7.12502
rthumb 26.6411 -18.1031
lclavicle 1.59028e-014 -9.54166e-015
lhumerus -17.0461 -7.4113 83.0956
lradius 29.4335
lwrist -37.251
lhand -24.7813 -14.5412
lfingers 7.12502
lthumb 1.72278 15.4316
rfemur -10.6026 -3.23563 14.3656
rtibia 35.8004
rfoot -19.9376 -3.79231
rtoes -37.216
lfemur -7.14257 6.50685 -18.4509
ltibia 29.7966
lfoot -12.8836 -18.5755
ltoes 9.128
4
root -0.412549 19.1164 3.1573 -181.311 -15.1654 179.97
lowerback -2.06615 1.56323 -4.10908
upperback 7.13756 2.08152 -3.83606
thorax 8.67033 0.652092 -1.59884
lowerneck -4.89542 -8.5846 -2.63719
upperneck 19.5062 -15.1441 10.1775
head 7.81951 -7.13785 2.35958
rclavicle 2.0276e-014 1.90833e-014
rhumerus -73.515 -51.3362 -28.5927
rradius 11.1304
rwrist 58.5153
rhand 1.28096 10.3206
rfingers 7.12502
rthumb 26.8167 -17.798
lclavicle 2.0276e-014 1.90833e-014
lhumerus -16.5573 -8.99513 82.9572
lradius 30.8285
lwrist -36.254
lhand -24.9861 -15.0079
lfingers 7.12502
lthumb 1.52497 14.9664
rfemur -10.819 -2.13345 14.2713
rtibia 37.2035
rfoot -19.8184 -4.49167
rtoes -37.599
lfemur -6.45136 5.83558 -18.5996
ltibia 29.4399
lfoot -12.7891 -18.0455
ltoes 9.15921
5
root -0.42891 19.1245 3.18608 -181.906 -15.3141 179.947
lowerback -1.19728 1.52704 -4.19081
upperback 7.37066 1.93842 -3.89653
thorax 8.41229 0.558745 -1.64775
lowerneck -5.13852 -8.69829 -2.86472
upperneck 19.4594 -15.239 10.1996
head 7.87306 -7.17529 2.3794
rclavicle 3.85642e-014 -1.41535e-013
rhumerus -71.2336 -50.542 -31.5505
rradius 11.181
rwrist 57.8212
rhand 1.37477 10.5789
rfingers 7.12502
rthumb 26.9065 -17.526
lclavicle 3.85642e-014 -1.41535e-013
lhumerus -16.0476 -10.2453 82.7505
lradius 32.2473
lwrist -35.3835
lhand -25.2625 -15.4455
lfingers 7.12502
lthumb 1.25806 14.5305
rfemur -11.1371 -0.927085 14.2023
rtibia 38.9024
rfoot -19.5352 -5.06116
rtoes -36.589
lfemur -5.62731 5.25947 -18.7278
ltibia 28.9719
lfoot -12.632 -17.6012
ltoes 9.13837
6
root -0.445542 19.1373 3.21605 -182.527 -15.4933 179.942
lowerback -0.305617 1.48683 -4.23796
upperback 7.62358 1.78022 -3.99068
thorax 8.16617 0.457915 -1.75084
lowerneck -5.35392 -8.7799 -3.01267
upperneck 19.3389 -15.2951 10.267
head 7.89255 -7.18995 2.4081
rclavicle 3.4191e-014 2.8625e-014
rhumerus -69.0318 -49.7019 -34.5251
rradius 11.2478
rwrist 57.0685
rhand 1.28767 10.7789
rfingers 7.12502
rthumb 26.8231 -17.3387
lclavicle 3.4191e-014 2.8625e-014
lhumerus -15.3952 -11.1367 82.4043
lradius 33.6369
lwrist -34.6501
lhand -25.6168 -15.9942
lfingers 7.12502
lthumb 0.915874 13.9835
rfemur -11.633 0.153582 14.1747
rtibia 40.8812
rfoot -18.6758 -5.60618
rtoes -35.0738
lfemur -4.73872 4.7095 -18.8378
ltibia 28.4337
lfoot -12.3653 -17.2238
ltoes 9.40001
7
root -0.460466 19.1474 3.24611 -183.149 -15.6471 179.941
lowerback 0.587215 1.46614 -4.27527
upperback 7.88564 1.6413 -4.13096
thorax 7.93262 0.365073 -1.90451
lowerneck -5.54459 -8.86086 -3.01106
upperneck 19.1656 -15.3581 10.3213
head 7.87873 -7.20315 2.41105
rclavicle 3.26007e-014 -5.24792e-014
rhumerus -66.8928 -48.8017 -37.553
rradius 11.3342
rwrist 56.2101
rhand 1.02707 10.9835
rfingers 7.12502
rthumb 26.5738 -17.1722
lclavicle 3.26007e-014 -5.24792e-014
lhumerus -14.6325 -11.8894 81.9227
lradius 35.044
lwrist -33.8744
lhand -26.141 -16.6467
lfingers 7.12502
lthumb 0.409532 13.3326
rfemur -12.3247 1.12847 14.1794
rtibia 43.1137
rfoot -17.6319 -6.12281
rtoes -33.2648
lfemur -3.85481 4.31648 -18.9247
ltibia 27.886
lfoot -12.0769 -16.9789
ltoes 9.50252
8
root -0.473898 19.1527 3.27717 -183.783 -15.8082 179.942
lowerback 1.47473 1.45228 -4.31532
upperback 8.1799 1.50402 -4.28462
thorax 7.73897 0.268726 -2.06916
lowerneck -5.72452 -8.93614 -2.91198
upperneck 18.9101 -15.4017 10.3577
head 7.82557 -7.20436 2.39762
rclavicle -2.50469e-014 -2.8625e-014
rhumerus -64.777 -47.8721 -40.5675
rradius 11.4038
rwrist 55.1682
rhand 0.614547 11.1104
rfingers 7.12502
rthumb 26.1789 -17.1044
lclavicle -2.50469e-014 -2.8625e-014
lhumerus -13.7121 -12.5227 81.3845
lradius 36.4587
lwrist -32.9071
lhand -26.8387 -17.357
lfingers 7.12502
lthumb -0.264293 12.6226
rfemur -13.1613 1.99371 14.1848
rtibia 45.5557
rfoot -16.5244 -6.42637
rtoes -30.8974
lfemur -2.9925 4.01221 -18.9932
ltibia 27.3825
lfoot -11.7929 -16.8056
ltoes 9.6392
9
root -0.485593 19.1549 3.30959 -184.385 -15.9814 179.962
lowerback 2.29232 1.44427 -4.36299
upperback 8.5032 1.37425 -4.43054
thorax 7.61873 0.171852 -2.21938
lowerneck -5.9636 -9.02199 -2.80278
upperneck 18.6579 -15.459 10.3939
head 7.78456 -7.20802 2.37785
rclavicle -3.45885e-014 2.70347e-014
rhumerus -62.6153 -46.8991 -43.6345
rradius 11.5265
rwrist 53.7685
rhand 0.235004 11.1352
rfingers 7.12502
rthumb 25.8154 -17.1331
lclavicle -3.45885e-014 2.70347e-014
lhumerus -12.661 -13.1406 80.7915
lradius 37.9646
lwrist -31.7427
lhand -27.6112 -17.9604
lfingers 7.12502
lthumb -1.01042 12.0169
rfemur -14.1723 2.7326 14.1954
rtibia 48.1671
rfoot -15.4149 -6.50672
rtoes -27.9117
lfemur -2.23999 3.70054 -19.0482
ltibia 26.9961
lfoot -11.5611 -16.6562
ltoes 9.70964
10
root -0.495529 19.154 3.34223 -184.955 -16.1384 179.944
lowerback 3.08164 1.43967 -4.48154
upperback 8.81874 1.24666 -4.57373
thorax 7.50636 0.0694561 -2.32519
lowerneck -6.23413 -9.08661 -2.71144
upperneck 18.4914 -15.5014 10.4135
head 7.77636 -7.20469 2.35388
rclavicle -6.32135e-014 1.59028e-015
rhumerus -60.6705 -45.9477 -46.3611
rradius 11.6419
rwrist 52.4957
rhand -0.162925 11.1006
rfingers 7.12502
rthumb 25.4343 -17.2225
lclavicle -6.32135e-014 1.59028e-015
lhumerus -11.5259 -13.6649 80.2003
lradius 39.5022
lwrist -30.4218
lhand -28.3422 -18.3707
lfingers 7.12502
lthumb -1.71639 11.6021
rfemur -15.3317 3.35968 14.1482
rtibia 50.9148
rfoot -14.338 -6.3824
rtoes -24.7645
lfemur -1.57253 3.41751 -19.1446
ltibia 26.7238
lfoot -11.355 -16.5235
ltoes 9.72872
11
root -0.50288 19.149 3.3758 -185.468 -16.3335 179.928
lowerback 3.79491 1.43183 -4.61768
upperback 9.1543 1.1148 -4.72435
thorax 7.46161 -0.0391029 -2.42847
lowerneck -6.57788 -9.15562 -2.63579
upperneck 18.3531 -15.5626 10.4722
head 7.79668 -7.20432 2.33785
rclavicle -3.26007e-014 -7.95139e-015
rhumerus -58.7293 -44.9489 -49.11
rradius 11.8367
rwrist 50.9855
rhand -0.428365 11.0182
rfingers 7.12502
rthumb 25.18 -17.3408
lclavicle -3.26007e-014 -7.95139e-015
lhumerus -10.2737 -14.1128 79.5643
lradius 41.0924
lwrist -29.0174
lhand -29.0659 -18.6658
lfingers 7.12502
lthumb -2.41536 11.3003
rfemur -16.6259 3.8708 14.0934
rtibia 53.758
rfoot -13.422 -6.11831
rtoes -21.4279
lfemur -1.03762 3.16454 -19.2345
ltibia 26.5628
lfoot -11.2243 -16.443
ltoes 9.63293
12
root -0.50877 19.1419 3.41019 -185.957 -16.5213 179.93
lowerback 4.48464 1.42808 -4.76707
upperback 9.48972 0.985191 -4.85655
thorax 7.43134 -0.1493 -2.50358
lowerneck -6.98903 -9.21686 -2.56917
upperneck 18.2841 -15.6189 10.5044
head 7.85012 -7.19891 2.31037
rclavicle 3.33958e-014 2.8625e-014
rhumerus -56.8904 -43.9472 -51.6616
rradius 12.0279
rwrist 49.4322
rhand -0.670709 10.9128
rfingers 7.12502
rthumb 24.9478 -17.4787
lclavicle 3.33958e-014 2.8625e-014
lhumerus -8.93666 -14.462 78.9452
lradius 42.7311
lwrist -27.493
lhand -29.6914 -18.7353
lfingers 7.12502
lthumb -3.01942 11.2231
rfemur -18.0295 4.33015 14.0467
rtibia 56.6805
rfoot -12.2681 -5.74664
rtoes -18.0624
lfemur -0.571316 2.9549 -19.298
ltibia 26.4722
lfoot -11.0982 -16.4154
ltoes 9.62888
13
root -0.511201 19.1331 3.44508 -186.439 -16.745 179.94
lowerback 5.1826 1.42683 -4.94944
upperback 9.82114 0.851973 -4.97944
thorax 7.39321 -0.265329 -2.54924
lowerneck -7.38227 -9.28094 -2.52924
upperneck 18.2256 -15.6899 10.5711
head 7.91006 -7.2011 2.29676
rclavicle 1.98785e-014 -8.42847e-014
rhumerus -55.1625 -42.8846 -54.0867
rradius 12.2618
rwrist 47.8538
rhand -0.818291 10.8103
rfingers 7.12502
rthumb 24.8064 -17.6007
lclavicle 1.98785e-014 -8.42847e-014
lhumerus -7.56346 -14.8111 78.3215
lradius 44.4743
lwrist -26.0045
lhand -30.2255 -18.5492
lfingers 7.12502
lthumb -3.53525 11.4013
rfemur -19.4911 4.73188 14.0049
rtibia 59.6501
rfoot -11.1414 -5.27959
rtoes -14.774
lfemur -0.155108 2.82117 -19.3244
ltibia 26.4309
lfoot -10.9681 -16.4859
ltoes 9.46729
